<svg xmlns="http://www.w3.org/2000/svg" viewBox="0 0 32 32" xml:space="preserve" width="24" role="presentation" alt="" data-testid="FlagUsaIcon" color="currentColor" size="24"><path d="M29.7 5.7H2.3C1 5.7 0 6.7 0 8v16c0 1.3 1 2.3 2.3 2.3h27.4c1.3 0 2.3-1 2.3-2.3V8c0-1.3-1-2.3-2.3-2.3z" fill="#fff"></path><path fill="#bf0a30" d="M0 10.3h32v2.3H0zM32 8H0c0-1.3 1-2.3 2.3-2.3h27.4C31 5.7 32 6.7 32 8zM32 24H0c0 1.3 1 2.3 2.3 2.3h27.4c1.3 0 2.3-1 2.3-2.3zM0 14.9h32v2.3H0zM0 19.4h32v2.3H0z"></path><path d="M16 17.1H0V8c0-1.3 1-2.3 2.3-2.3H16v11.4z" fill="#002868"></path></svg>